<svg xmlns="http://www.w3.org/2000/svg" width="36" height="36" viewBox="0 0 36 36"><path fill="#efefef" d="m34.904 20.355c-3.782-5.791-3.38-11.727-5.203-14.518s-7.256-7.603-20.093.782-9.572 17.5-7.566 20.569c9.388 14.372 39.561 3.423 32.862-6.833z"/><g fill="#a4afc1"><path d="m31.445 7.783h1v2h-1z" transform="rotate(-45.001 31.945 8.783)"/><path d="m27.379 3.717h1v2h-1z" transform="rotate(-45.001 27.879 4.717)"/><path d="m31.121 4.217h2v1h-2z" transform="rotate(-45.001 32.121 4.717)"/><path d="m5.504 7.25c-.827 0-1.5-.673-1.5-1.5s.673-1.5 1.5-1.5 1.5.673 1.5 1.5-.672 1.5-1.5 1.5zm0-2c-.276 0-.5.224-.5.5s.224.5.5.5.5-.224.5-.5-.224-.5-.5-.5z"/></g><path fill="#f3f3f1" d="m18.272 26.804c3.497 0 8.381.083 10.158-3.43.67-1.343.82-2.894.82-4.356h-.001c0-1.921-.539-3.751-1.828-5.237.239-.71.361-1.458.361-2.21 0-.986-.225-1.481-.684-2.375-2.1 0-3.459.389-5.053 1.614-1.228-.289-2.503-.422-3.769-.422-1.402 0-2.799.143-4.158.459-1.617-1.239-2.977-1.651-5.1-1.651-.454.894-.684 1.389-.684 2.375 0 .751.117 1.513.361 2.237-1.293 1.472-1.945 3.288-1.945 5.21 0 1.463.263 3.027.947 4.356 1.847 3.554 7.022 3.43 10.575 3.43z"/><path fill="#2fdf84" d="m13.313 17.045c.891 0 1.748.156 2.625.275.703.106 1.402.147 2.114.147.717 0 1.416-.041 2.114-.147.891-.119 1.739-.275 2.625-.275 2.193 0 3.445 1.775 3.445 3.788 0 4.031-3.764 4.645-7.059 4.645h-2.259c-3.281 0-7.05-.618-7.05-4.645 0-2.013 1.251-3.788 3.445-3.788z"/><path fill="#d5dbe1" d="m24.295 10.81c.98-.753 1.873-1.188 2.902-1.413-.035-.069-.061-.127-.099-.201-1.906 0-3.203.328-4.618 1.303.612.069 1.219.17 1.815.311z"/><path fill="#d5dbe1" d="m9.947 23.374c-.684-1.329-.947-2.894-.947-4.356 0-1.921.652-3.737 1.945-5.21-.244-.725-.361-1.486-.361-2.237 0-.904.203-1.408.584-2.171-.644-.143-1.341-.204-2.15-.204-.454.894-.684 1.389-.684 2.375 0 .751.117 1.513.361 2.237-1.293 1.472-1.945 3.288-1.945 5.21 0 1.463.263 3.027.947 4.356 1.847 3.554 7.022 3.43 10.575 3.43.306 0 .626 0 .951-.001-3.414-.02-7.644-.288-9.276-3.429z"/><path fill="#d5dbe1" d="m16.368 10.847c.982-.228 1.985-.364 2.995-.422-.362-.022-.724-.036-1.086-.036-.786 0-1.569.05-2.346.145.144.099.288.199.437.313z"/><path fill="#00b871" d="m20.302 17.467c.717 0 1.416-.041 2.114-.147.415-.056.821-.118 1.226-.17-.267-.064-.548-.105-.851-.105-.886 0-1.734.156-2.625.275-.328.05-.657.083-.987.106.372.027.746.041 1.123.041z"/><path fill="#00b871" d="m12.118 20.833c0-1.735.934-3.287 2.596-3.684-.463-.059-.927-.104-1.401-.104-2.194 0-3.445 1.775-3.445 3.788 0 4.027 3.769 4.645 7.05 4.645h2.25c-3.281 0-7.05-.618-7.05-4.645z"/><path d="m17.546 27.555c-3.714 0-8.583-.118-10.515-3.835-1.424-2.769-1.563-7.05.828-10.08-.183-.666-.275-1.36-.275-2.069 0-1.151.276-1.752.765-2.715.128-.252.386-.411.669-.411 2.203 0 3.668.437 5.272 1.595 2.48-.524 5.205-.539 7.583-.037 1.566-1.131 3.021-1.558 5.226-1.558.281 0 .539.157.667.408.476.926.767 1.553.767 2.718 0 .694-.093 1.379-.276 2.044 1.157 1.482 1.743 3.297 1.743 5.403 0 3.611-1.026 5.885-3.23 7.156-1.988 1.146-4.834 1.381-8.497 1.381h-.347c-.126 0-.253 0-.38 0zm-8.067-17.602c-.278.577-.395.95-.395 1.618 0 .692.108 1.364.322 1.998.085.253.029.533-.147.734-2.229 2.538-2.138 6.312-.895 8.728 1.576 3.033 6.173 3.023 9.56 3.024h.349c7.548 0 10.228-1.063 10.228-7.037-.001-1.892-.555-3.488-1.645-4.745-.174-.201-.229-.479-.145-.73.213-.635.322-1.299.322-1.971 0-.678-.116-1.05-.393-1.619-1.742.055-2.83.447-4.138 1.452-.179.137-.41.188-.628.135-2.347-.552-5.112-.537-7.586.038-.22.049-.448.001-.626-.135-1.346-1.032-2.447-1.434-4.183-1.49z"/><path d="m19.177 26.229c-.362-.022-.78-.019-1.259-.012-2.21.02-5.55.056-7.453-1.829-.894-.885-1.348-2.081-1.348-3.554 0-2.629 1.764-4.538 4.195-4.538.772 0 1.51.107 2.224.21l.502.071c1.975.297 3.296.107 4.573-.077.73-.105 1.42-.205 2.178-.205 2.431 0 4.195 1.909 4.195 4.538.002 5.396-5.875 5.396-7.807 5.396zm-.681-1.517c.279 0 .525.004.731.018 4.313-.001 6.259-1.203 6.259-3.896 0-1.463-.843-3.038-2.695-3.038-.65 0-1.289.092-1.964.189-1.32.19-2.816.407-5 .077l-.504-.072c-.692-.1-1.345-.195-2.009-.195-1.852 0-2.695 1.575-2.695 3.038 0 1.073.295 1.887.903 2.488 1.458 1.444 4.418 1.417 6.382 1.395.208-.002.407-.004.592-.004z"/><path d="m22.364 23.833c-1.379 0-2-1.462-2-2.5s.621-2.5 2-2.5 2 1.462 2 2.5-.62 2.5-2 2.5zm0-3.5c-.285 0-.5.606-.5 1s.215 1 .5 1 .5-.606.5-1-.215-1-.5-1z"/><path d="m13.753 23.833c-1.379 0-2-1.462-2-2.5s.621-2.5 2-2.5 2 1.462 2 2.5-.621 2.5-2 2.5zm0-3.5c-.285 0-.5.606-.5 1s.215 1 .5 1 .5-.606.5-1-.215-1-.5-1z"/></svg>