<svg xmlns="http://www.w3.org/2000/svg" width="70" height="70" viewBox="0 0 256 256"><path fill="#648940" d="M73.291,92.763c0,0-16.055,5.765-26.932-1.155c-10.877-6.92-12.457-23.906-12.457-23.906 s16.055-5.765,26.932,1.155S73.291,92.763,73.291,92.763z"/><path fill="#8C3F0A" d="M73.291,110.996c-1.104,0-2-0.896-2-2V66.375c0-1.104,0.896-2,2-2s2,0.896,2,2v42.621 C75.291,110.101,74.395,110.996,73.291,110.996z"/><path fill="#D10028" d="M124.767,105.289c-21.839-20.958-47.24-0.02-51.477,3.765c-4.237-3.785-29.638-24.723-51.477-3.765 c-27.02,25.93-8.302,76.234,21.151,90.826c18.41,9.121,27.919,2.696,30.326,0.6c2.407,2.096,11.916,8.522,30.326-0.6 C133.069,181.523,151.787,131.22,124.767,105.289z"/><path fill="#B7022D" d="M124.767,105.289c-0.667-0.64-1.337-1.24-2.01-1.803c22.522,26.667,4.145,73.615-24.141,87.629 c-18.41,9.121-27.918,2.696-30.326,0.6c-2.407,2.096-11.916,8.522-30.326-0.6c-3.959-1.961-7.721-4.573-11.207-7.679 c4.776,5.348,10.273,9.739,16.207,12.679c18.41,9.121,27.919,2.696,30.326,0.6c2.407,2.096,11.916,8.522,30.326-0.6 C133.069,181.523,151.787,131.22,124.767,105.289z"/><g><path fill="#648940" d="M166.117,72.44c0,0-16.055,5.765-26.932-1.155c-10.877-6.92-12.457-23.906-12.457-23.906 s16.055-5.765,26.932,1.155S166.117,72.44,166.117,72.44z"/><path fill="#8C3F0A" d="M166.117,101.572c-1.104,0-2-0.896-2-2V56.95c0-1.104,0.896-2,2-2s2,0.896,2,2v42.622 C168.117,100.677,167.222,101.572,166.117,101.572z"/><ellipse cx="166.117" cy="134.594" fill="#6C2BC1" rx="27.333" ry="41"/><circle cx="149.284" cy="95.594" r="17.333" fill="#893ADD"/><path fill="#6C2BC1" d="M158.777,81.101c1.791,2.728,2.84,5.986,2.84,9.493c0,9.573-7.76,17.333-17.333,17.333 c-3.507,0-6.765-1.049-9.493-2.84c3.097,4.719,8.427,7.84,14.493,7.84c9.573,0,17.333-7.76,17.333-17.333 C166.617,89.528,163.496,84.198,158.777,81.101z"/><circle cx="182.951" cy="95.594" r="17.333" fill="#893ADD"/><path fill="#6C2BC1" d="M192.444,81.101c1.791,2.728,2.84,5.986,2.84,9.493c0,9.573-7.76,17.333-17.333,17.333 c-3.507,0-6.765-1.049-9.493-2.84c3.097,4.719,8.427,7.84,14.493,7.84c9.573,0,17.333-7.76,17.333-17.333 C200.284,89.528,197.163,84.198,192.444,81.101z"/><g><circle cx="132.871" cy="125.213" r="17.333" fill="#893ADD"/><path fill="#6C2BC1" d="M142.364,110.72c1.791,2.728,2.84,5.986,2.84,9.493c0,9.573-7.76,17.333-17.333,17.333 c-3.507,0-6.765-1.049-9.493-2.84c3.097,4.719,8.427,7.84,14.493,7.84c9.573,0,17.333-7.76,17.333-17.333 C150.204,119.147,147.083,113.817,142.364,110.72z"/><circle cx="166.117" cy="125.213" r="17.333" fill="#893ADD"/><path fill="#6C2BC1" d="M175.611,110.72c1.791,2.728,2.84,5.986,2.84,9.493c0,9.573-7.76,17.333-17.333,17.333 c-3.507,0-6.765-1.049-9.493-2.84c3.097,4.719,8.427,7.84,14.493,7.84c9.573,0,17.333-7.76,17.333-17.333 C183.451,119.147,180.329,113.817,175.611,110.72z"/><g><circle cx="199.364" cy="125.213" r="17.333" fill="#893ADD"/><path fill="#6C2BC1" d="M208.857,110.72c1.791,2.728,2.84,5.986,2.84,9.493c0,9.573-7.76,17.333-17.333,17.333 c-3.507,0-6.765-1.049-9.493-2.84c3.097,4.719,8.427,7.84,14.493,7.84c9.573,0,17.333-7.76,17.333-17.333 C216.697,119.147,213.576,113.817,208.857,110.72z"/></g></g><g><circle cx="149.284" cy="154.594" r="17.333" fill="#893ADD"/><path fill="#6C2BC1" d="M158.777,140.101c1.791,2.728,2.84,5.986,2.84,9.493c0,9.573-7.76,17.333-17.333,17.333 c-3.507,0-6.765-1.049-9.493-2.84c3.097,4.719,8.427,7.84,14.493,7.84c9.573,0,17.333-7.76,17.333-17.333 C166.617,148.528,163.496,143.198,158.777,140.101z"/><g><circle cx="182.951" cy="154.594" r="17.333" fill="#893ADD"/><path fill="#6C2BC1" d="M192.444,140.101c1.791,2.728,2.84,5.986,2.84,9.493c0,9.573-7.76,17.333-17.333,17.333 c-3.507,0-6.765-1.049-9.493-2.84c3.097,4.719,8.427,7.84,14.493,7.84c9.573,0,17.333-7.76,17.333-17.333 C200.284,148.528,197.163,143.198,192.444,140.101z"/></g></g><g><circle cx="166.117" cy="182.88" r="17.333" fill="#893ADD"/><path fill="#6C2BC1" d="M175.611,168.386c1.791,2.728,2.84,5.986,2.84,9.493c0,9.573-7.76,17.333-17.333,17.333 c-3.507,0-6.765-1.049-9.493-2.84c3.097,4.719,8.427,7.84,14.493,7.84c9.573,0,17.333-7.76,17.333-17.333 C183.451,176.814,180.329,171.484,175.611,168.386z"/></g></g><g><path fill="#FFA91A" d="M49.761,128.69c4.182-3.84,10.548-4.002,14.921-0.382c14.642,12.118,49.277,36.371,87.144,31.525 c50.083-6.408,73.149-54.778,73.149-54.778l15.148,3.615l-1.033,4.523c0,0,12.738,37.822-14.115,68.462 S145.171,217.803,100.997,203c-35.841-12.011-52.327-43.384-58.213-57.887c-1.782-4.392-0.646-9.423,2.845-12.628L49.761,128.69z"/><path fill="#FFC91D" d="M128.86,167.538c-0.07,0-0.14-0.004-0.211-0.011c-0.034-0.004-0.124-0.017-0.158-0.021 c-1.091-0.172-1.836-1.196-1.664-2.287s1.199-1.835,2.288-1.664l-0.312,1.976l0.32-1.975c1.073,0.165,1.839,1.16,1.699,2.236 C130.691,166.799,129.851,167.538,128.86,167.538z M120.938,166.091c-0.145,0-0.291-0.016-0.438-0.048 c-14.374-3.213-29.025-9.563-43.547-18.876c-0.93-0.597-1.2-1.833-0.604-2.764c0.596-0.928,1.834-1.197,2.763-0.604 c14.127,9.06,28.345,15.229,42.26,18.339c1.078,0.241,1.757,1.311,1.516,2.389C122.68,165.458,121.854,166.091,120.938,166.091z"/><path fill="#F79219" d="M239.09,113.193l1.033-4.523l-10.189-2.432c2.338,9.577,7.341,39.972-14.959,65.417 c-26.853,30.64-79.804,36.148-123.978,21.344c-11.713-3.925-21.347-9.924-29.231-16.72c9.256,10.697,22.002,20.947,39.231,26.72 c44.173,14.803,97.125,9.295,123.978-21.344C251.828,151.015,239.09,113.193,239.09,113.193z"/><path fill="#EF7816" d="M239.09,113.193l1.033-4.523l-5.824-1.39l-0.208,0.913c0,0,12.738,37.822-14.115,68.462 c-26.853,30.64-79.804,36.148-123.978,21.344c-13.06-4.377-23.539-11.328-31.883-19.094c9.03,9.726,21.07,18.795,36.883,24.094 c44.173,14.803,97.125,9.295,123.978-21.344C251.828,151.015,239.09,113.193,239.09,113.193z"/><path fill="#648940" d="M224.975,105.056l5.572-19.586c0.734-2.579,3.371-4.12,5.978-3.493l6.901,1.659 c2.913,0.7,4.56,3.787,3.52,6.597l-6.824,18.438L224.975,105.056z"/><path fill="#5A7A39" d="M243.427,83.635l-6.901-1.659c-1.178-0.283-2.354-0.105-3.366,0.393l5.267,1.266 c2.913,0.7,4.56,3.787,3.52,6.597l-6.419,17.342l4.594,1.096l6.824-18.438C247.987,87.422,246.34,84.335,243.427,83.635z"/></g></svg>